<?xml version="1.0" standalone="no"?>
<!DOCTYPE svg PUBLIC "-//W3C//DTD SVG 1.1//EN" "http://www.w3.org/Graphics/SVG/1.1/DTD/svg11.dtd" >
<svg xmlns="http://www.w3.org/2000/svg" xmlns:xlink="http://www.w3.org/1999/xlink" version="1.1">
<metadata>
Created by FontForge 20170731 at Sat Aug  7 18:34:28 2021
 By Aleksey,,,
Copyright 2020 Production Systems SAS - All rights reserved - End-User License Agreement:  http://www.productiontype.com/license
</metadata>
<defs>
<font id="CardinalFruit-MediumItalic" horiz-adv-x="309" >
  <font-face 
    font-family="Cardinal Fruit Medium"
    font-weight="500"
    font-style="italic"
    font-stretch="normal"
    units-per-em="2048"
    panose-1="2 0 0 0 0 0 0 0 0 0"
    ascent="1397"
    descent="-651"
    x-height="1057"
    cap-height="1536"
    bbox="-446 -545 1843 1577"
    underline-thickness="63"
    underline-position="-312"
    slope="-14"
    unicode-range="U+0020-201D"
  />
<missing-glyph horiz-adv-x="1036" 
 />
    <glyph glyph-name=".notdef" horiz-adv-x="1036" 
 />
    <glyph glyph-name=".null" horiz-adv-x="0" 
 />
    <glyph glyph-name="nonmarkingreturn" horiz-adv-x="682" 
 />
    <glyph glyph-name="space" unicode=" " horiz-adv-x="389" 
 />
    <glyph glyph-name="exclam" unicode="!" horiz-adv-x="425" 
d="M524 1489q0 -63 -50 -219t-132.5 -405.5t-134.5 -450.5h-43q54 232 113.5 580.5t82.5 443.5q15 63 42.5 97t62.5 34q29 0 44 -21.5t15 -58.5zM94 -20q-32 0 -51.5 20.5t-19.5 60.5q0 51 30.5 88t75.5 37q33 0 52.5 -21t19.5 -63q0 -48 -31 -85t-76 -37z" />
    <glyph glyph-name="quotedbl" unicode="&#x22;" horiz-adv-x="526" 
d="M444 1497q0 -37 -24.5 -100t-64.5 -166.5t-66 -206.5h-31q19 83 31.5 169t20 170.5t9.5 96.5q5 45 25.5 70.5t52.5 25.5q47 0 47 -59zM655 1497q0 -37 -24.5 -100t-64.5 -166.5t-66 -206.5h-31q19 83 31.5 169t20 170.5t9.5 96.5q5 45 25.5 70.5t52.5 25.5q47 0 47 -59z
" />
    <glyph glyph-name="ampersand" unicode="&#x26;" horiz-adv-x="1126" 
d="M825 119q68 0 236 317l29 -18q-220 -451 -332 -451q-40 0 -66.5 45.5t-56.5 141.5q-153 -187 -305 -187q-118 0 -188 92.5t-70 237.5q0 337 352 561q-35 147 -35 250q0 192 98.5 326.5t245.5 134.5q83 0 130.5 -62t47.5 -159q0 -137 -90.5 -247.5t-259.5 -215.5v-2
l156 -539q88 138 155.5 293t67.5 197q0 21 -17.5 34t-50.5 13h-55l6 28h357l-9 -30h-26q-60 0 -89 -17t-50 -61q-184 -368 -275 -512q27 -87 48 -128.5t46 -41.5zM508 1196q0 -121 41 -268q125 91 184.5 190t59.5 238q0 155 -101 155q-84 0 -134 -94t-50 -221zM408 72
q94 0 208 137l-165 555q-2 8 -7.5 24.5t-7.5 24.5q-211 -177 -211 -455q0 -125 49 -205.5t134 -80.5z" />
    <glyph glyph-name="quotesingle" unicode="'" horiz-adv-x="313" 
d="M444 1497q0 -37 -24.5 -100t-64.5 -166.5t-66 -206.5h-31q19 83 31.5 169t20 170.5t9.5 96.5q5 45 25.5 70.5t52.5 25.5q47 0 47 -59z" />
    <glyph glyph-name="parenleft" unicode="(" horiz-adv-x="471" 
d="M72 358q0 316 163 633t433 545l16 -23q-232 -237 -373 -574t-141 -689q0 -280 86 -479l-23 -17q-161 260 -161 604z" />
    <glyph glyph-name="parenright" unicode=")" horiz-adv-x="473" 
d="M467 932q0 -317 -162.5 -634t-433.5 -544l-14 23q232 236 372 573t140 690q0 279 -84 480l22 16q160 -258 160 -604z" />
    <glyph glyph-name="plus" unicode="+" horiz-adv-x="1024" 
d="M133 567l21 60h356l90 360h59l-90 -360h365l-23 -60h-356l-90 -362h-59l90 362h-363z" />
    <glyph glyph-name="comma" unicode="," horiz-adv-x="368" 
d="M193 74q0 -124 -68 -243t-193 -179l-4 35q77 39 131 121.5t54 168.5q0 15 -2 21q-20 -10 -39 -10q-30 0 -50 22t-20 60q0 47 29 81.5t75 34.5q41 0 64 -29t23 -83z" />
    <glyph glyph-name="hyphen" unicode="-" horiz-adv-x="522" 
d="M127 561h295l-27 -98h-295z" />
    <glyph glyph-name="period" unicode="." horiz-adv-x="346" 
d="M70 -20q-32 0 -53 21.5t-21 61.5q0 49 31 86t77 37q32 0 52 -21.5t20 -62.5q0 -49 -30 -85.5t-76 -36.5z" />
    <glyph glyph-name="slash" unicode="/" horiz-adv-x="610" 
d="M-147 -348l884 1884h64l-885 -1884h-63z" />
    <glyph glyph-name="zero" unicode="0" horiz-adv-x="946" 
d="M362 -33q-118 0 -180.5 117.5t-62.5 316.5q0 180 48.5 385.5t127 379t190.5 288.5t228 115q120 0 182.5 -117t62.5 -317q0 -119 -22 -253.5t-60.5 -263.5t-94.5 -247.5t-120.5 -208t-142.5 -142.5t-156 -53zM367 27q83 0 168 133.5t146 325.5t99.5 404t38.5 370
q0 249 -108 249q-84 0 -169.5 -133.5t-146 -325.5t-99 -404t-38.5 -370q0 -249 109 -249z" />
    <glyph glyph-name="one" unicode="1" horiz-adv-x="653" 
d="M342 152q-6 -24 -6 -43q0 -78 96 -78h27l-6 -31h-484l8 31h31q77 0 126 32t63 89l286 1194q-43 -23 -87.5 -43t-87.5 -37.5t-62 -26.5l-8 35q133 71 228 137t200 166h20z" />
    <glyph glyph-name="two" unicode="2" horiz-adv-x="841" 
d="M612 0h-637l15 61q64 86 159.5 203.5t165.5 201t148 191.5t127 197t82 193.5t33 203.5q0 98 -36.5 158.5t-111.5 60.5q-103 0 -176 -91t-117 -294l-37 11q24 138 73.5 241.5t132 167.5t188.5 64q107 0 170 -79t63 -210q0 -100 -36.5 -204t-93 -192.5t-139.5 -190.5
t-159.5 -184.5t-170.5 -188.5t-157 -189h322q102 0 162.5 53.5t107.5 175.5l10 29h27z" />
    <glyph glyph-name="three" unicode="3" horiz-adv-x="839" 
d="M274 16q87 0 163.5 72t121.5 193t45 258q0 118 -46.5 186t-133.5 68q-73 0 -156 -58l-20 37q228 134 328 260t100 262q0 82 -36 127t-103 45q-43 0 -81.5 -21.5t-68 -59.5t-52 -82.5t-40.5 -98.5l-33 17q47 157 143.5 252.5t210.5 95.5q95 0 150 -63.5t55 -162.5
q0 -134 -85.5 -247t-266.5 -219q4 0 13 1t14 1q88 0 147.5 -47t84 -117t24.5 -158q0 -113 -39.5 -220.5t-106.5 -189t-162 -131t-198 -49.5t-178.5 41t-75.5 105q0 24 16.5 45.5t42.5 21.5q45 0 72 -53q30 -52 64.5 -81.5t86.5 -29.5z" />
    <glyph glyph-name="four" unicode="4" horiz-adv-x="878" 
d="M887 1577l-244 -1024h213l-14 -53h-211l-119 -500h-147l118 500h-463l5 24l831 1053h31zM111 553h385l172 717z" />
    <glyph glyph-name="five" unicode="5" horiz-adv-x="694" 
d="M-27 -31l11 45l24 2q148 14 260.5 92t171 199t58.5 266q0 302 -305 408l206 539l451 39l-68 -146l-385 -27l-108 -270q334 -133 334 -461q0 -126 -44 -245t-125 -214.5t-206 -157t-275 -69.5z" />
    <glyph glyph-name="six" unicode="6" horiz-adv-x="880" 
d="M350 -33q-132 0 -200 110.5t-68 291.5q0 198 75 393t203 352.5t298.5 279t359.5 183.5l4 -41q-146 -62 -259 -137t-210 -180t-168 -245t-119 -319q58 110 136 166t159 56q61 0 108 -25.5t74.5 -70t41.5 -100t14 -118.5q0 -147 -62 -285t-166.5 -224.5t-220.5 -86.5z
M522 807q-85 0 -155 -87t-105 -208.5t-35 -239.5q0 -110 32.5 -181t102.5 -71q79 0 147 92.5t103 219.5t35 246q0 229 -125 229z" />
    <glyph glyph-name="seven" unicode="7" horiz-adv-x="729" 
d="M926 1495l-762 -1479q-22 -49 -55 -49q-15 0 -25 11t-10 26q0 20 20 53l735 1342h-350q-104 0 -140.5 -27t-78.5 -129l-10 -26h-39l113 319h612z" />
    <glyph glyph-name="eight" unicode="8" horiz-adv-x="856" 
d="M733 426q0 -188 -118 -323.5t-277 -135.5q-131 0 -207 82t-76 223q0 292 348 519q-58 79 -90 160.5t-32 189.5q0 172 105 300t263 128q106 0 171 -78t65 -209q0 -280 -318 -453q42 -56 62.5 -86.5t49.5 -84t41.5 -110t12.5 -122.5zM623 1520q-93 0 -152 -90.5t-59 -225.5
q0 -100 33.5 -177t95.5 -163q67 50 113.5 111t68.5 121.5t30.5 109.5t8.5 97q0 101 -34 159t-105 58zM178 281q0 -261 172 -261q110 0 178 92.5t68 243.5q0 53 -11 103.5t-22.5 83t-40 79t-42 65t-50.5 67.5q-134 -99 -193 -228t-59 -245z" />
    <glyph glyph-name="nine" unicode="9" horiz-adv-x="882" 
d="M659 1561q130 0 198.5 -110.5t68.5 -289.5q0 -159 -48.5 -317t-135 -295.5t-203 -255t-257.5 -205.5t-292 -137l-2 43q145 61 258 136t209.5 179.5t167.5 245t118 319.5q-56 -111 -134 -167t-161 -56q-118 0 -177.5 90.5t-59.5 223.5q0 110 37 219t98 191.5t144.5 134
t170.5 51.5zM485 721q65 0 122 51t94.5 130.5t59 172.5t21.5 180q0 111 -33 181.5t-102 70.5q-79 0 -147 -91.5t-103 -218t-35 -245.5q0 -231 123 -231z" />
    <glyph glyph-name="question" unicode="?" horiz-adv-x="655" 
d="M215 416h-33l68 403q207 3 312.5 96.5t105.5 272.5q0 106 -57.5 159.5t-180.5 59.5l-33 2q-75 6 -75 74q0 39 25 62.5t69 23.5q74 0 153 -70q148 -124 148 -332q0 -204 -108.5 -333t-319.5 -158zM106 -20q-32 0 -51.5 20.5t-19.5 60.5q0 49 31 87t75 38q32 0 52 -21.5
t20 -62.5q0 -50 -31 -86t-76 -36z" />
    <glyph glyph-name="A" unicode="A" horiz-adv-x="1087" 
d="M948 1577l-123 -1360q-10 -109 8 -147.5t93 -38.5h24l-6 -31h-432l8 31h39q66 0 89.5 43t31.5 141l31 326h-357l-196 -326q-54 -88 -54 -127q0 -29 12.5 -43t43.5 -14h41l-8 -31h-336l6 31h10q57 0 106 44t111 144l832 1358h26zM391 602h326l61 637z" />
    <glyph glyph-name="B" unicode="B" horiz-adv-x="978" 
d="M317 1536h383q142 0 214.5 -76t72.5 -205q0 -147 -90.5 -269.5t-237.5 -164.5q105 -23 164.5 -103t59.5 -202q0 -141 -59.5 -258.5t-169.5 -187.5t-248 -70h-461l6 31h24q125 0 154 121l299 1232q6 24 6 43q0 78 -96 78h-27zM672 1473h-78l-156 -644h84q71 0 131.5 41
t98 105.5t58.5 140t21 148.5q0 209 -159 209zM406 63q96 0 172 68.5t114.5 171t38.5 215.5q0 254 -201 254h-106l-170 -709h152z" />
    <glyph glyph-name="C" unicode="C" horiz-adv-x="1101" 
d="M543 -33q-198 0 -311 146.5t-113 398.5q0 187 67 378.5t176 341t258.5 243.5t303.5 94q189 0 309 -123l-100 -397h-33q16 126 16 208q0 129 -47.5 191.5t-159.5 62.5q-98 0 -194.5 -60t-174.5 -164t-138.5 -235.5t-94 -282t-33.5 -294.5q0 -207 73 -328.5t210 -121.5
q131 0 241 123.5t171 308.5l8 30h33l-95 -383q-93 -70 -180 -103.5t-192 -33.5z" />
    <glyph glyph-name="D" unicode="D" horiz-adv-x="1224" 
d="M-57 0l8 31h24q125 0 154 121l299 1232q6 24 6 43q0 78 -96 78h-27l6 31h416q230 0 360 -145.5t130 -419.5q0 -195 -63 -374.5t-168 -310t-249.5 -208.5t-300.5 -78h-499zM713 1473h-119l-342 -1410h186q178 0 323.5 134.5t224.5 350.5t79 462q0 218 -88 340.5
t-264 122.5z" />
    <glyph glyph-name="E" unicode="E" horiz-adv-x="1019" 
d="M317 1536h807l-55 -362h-29l-2 36q-3 151 -39.5 207t-154.5 56h-248l-160 -654h160q85 0 139.5 57t95.5 181l15 39h26l-149 -609h-29l6 39q25 123 1 177.5t-119 54.5h-160l-168 -695h248q73 0 125.5 16.5t97 59.5t78 96t80.5 146l18 37h29l-142 -418h-843l6 31h24
q125 0 154 121l299 1232q6 24 6 43q0 78 -96 78h-27z" />
    <glyph glyph-name="F" unicode="F" horiz-adv-x="954" 
d="M317 1536h820l-54 -362h-30v36q-3 151 -40 207t-155 56h-262l-166 -685h150q85 0 139.5 57t95.5 181l14 39h27l-149 -610h-29l6 39q21 130 -1.5 180.5t-117.5 50.5h-149l-142 -573q-6 -24 -6 -43q0 -78 99 -78h26l-8 -31h-440l6 31h24q125 0 154 121l299 1230q6 24 6 43
q0 78 -96 78h-27z" />
    <glyph glyph-name="G" unicode="G" horiz-adv-x="1163" 
d="M924 1569q189 0 309 -123l-100 -397h-33q16 126 16 208q0 129 -47.5 191.5t-159.5 62.5q-98 0 -194.5 -60t-174.5 -164t-138.5 -235.5t-94 -282t-33.5 -294.5q0 -207 73 -328.5t210 -121.5q115 0 211 81l104 441q11 37 11 55q0 33 -22 49.5t-75 16.5h-26l6 30h399l-8 -30
h-22q-54 0 -78 -28t-39 -93l-107 -445q-95 -68 -181 -101.5t-187 -33.5q-198 0 -311 147t-113 398q0 187 67 378.5t176 341t258.5 243.5t303.5 94z" />
    <glyph glyph-name="H" unicode="H" horiz-adv-x="1316" 
d="M1169 1384q7 28 7 43q0 78 -97 78h-26l8 31h440l-6 -31h-27q-122 0 -151 -121l-299 -1232q-6 -24 -6 -43q0 -78 96 -78h27l-7 -31h-442l6 31h27q122 0 151 121l150 614h-596l-150 -614q-6 -24 -6 -43q0 -78 99 -78h26l-8 -31h-440l6 31h24q125 0 154 121l299 1232
q6 24 6 43q0 78 -96 78h-27l6 31h443l-8 -31h-25q-125 0 -154 -121l-133 -555h596z" />
    <glyph glyph-name="I" unicode="I" horiz-adv-x="575" 
d="M274 152q-6 -24 -6 -43q0 -78 99 -78h26l-8 -31h-440l6 31h24q125 0 154 121l299 1232q6 24 6 43q0 78 -96 78h-27l6 31h443l-8 -31h-25q-125 0 -154 -121z" />
    <glyph glyph-name="J" unicode="J" horiz-adv-x="559" 
d="M575 1384l-299 -1216q-72 -297 -199.5 -465t-269.5 -168q-55 0 -90.5 30.5t-35.5 67.5q2 32 20 53t47 21q23 0 40 -14.5t26 -31.5t26.5 -31.5t40.5 -14.5q37 0 72 42t66 121.5t55 159.5t51 191l305 1255q6 24 6 43q0 78 -96 78h-27l6 31h443l-8 -31h-25q-125 0 -154 -121
z" />
    <glyph glyph-name="K" unicode="K" horiz-adv-x="1107" 
d="M440 815l486 516q48 51 66 76.5t18 48.5q0 49 -58 49h-37l7 31h356l-10 -31h-13q-59 0 -113 -38.5t-173 -163.5l-404 -424l291 -717q29 -71 61 -101t87 -30h14l-8 -31h-68q-108 0 -151.5 26.5t-81.5 118.5zM274 152q-6 -24 -6 -43q0 -78 99 -78h26l-8 -31h-440l6 31h24
q125 0 154 121l299 1232q6 24 6 43q0 78 -96 78h-27l6 31h443l-8 -31h-25q-125 0 -154 -121z" />
    <glyph glyph-name="L" unicode="L" horiz-adv-x="966" 
d="M317 1536h443l-8 -31h-25q-125 0 -154 -121l-321 -1321h221q58 0 104 12t81.5 34t69 63.5t61.5 88.5t65 120l18 37h29l-143 -418h-813l6 31h24q125 0 154 121l299 1232q6 24 6 43q0 78 -96 78h-27z" />
    <glyph glyph-name="M" unicode="M" horiz-adv-x="1486" 
d="M1073 211l199 1022l-690 -1253h-27l-61 1222l-320 -991q-16 -56 -16 -105q0 -77 84 -77h26l-6 -29h-342l6 29h25q60 0 98 46t66 136l311 967q33 104 33 161q0 60 -23 97.5t-74 60.5l-30 14l6 25h285l69 -1239l680 1239h275l-7 -25l-38 -10q-54 -14 -87.5 -44.5
t-60.5 -95.5t-49 -179l-186 -971q-11 -64 -11 -90q0 -92 80 -92h25l-4 -29h-422l4 29h24q60 0 100 48t58 134z" />
    <glyph glyph-name="N" unicode="N" horiz-adv-x="1257" 
d="M520 1536l420 -1251l236 995q16 72 16 117q0 108 -111 108h-73l10 31h407l-8 -31h-24q-65 0 -97 -54t-61 -171l-260 -1098l61 -182h-155l-414 1223l-240 -967q-20 -86 -20 -125q0 -102 92 -102h74l-2 -29h-414l4 29h25q123 0 180 227l221 883q35 134 35 207q0 61 -26 104
t-81 53l-41 8l7 25h239z" />
    <glyph glyph-name="O" unicode="O" horiz-adv-x="1255" 
d="M834 1569q194 0 306.5 -157.5t112.5 -418.5q0 -116 -24.5 -238.5t-68.5 -236t-109 -214.5t-141 -175.5t-170 -118t-191 -43.5q-193 0 -305.5 157.5t-112.5 418.5q0 175 54.5 358t146 331t224.5 242.5t278 94.5zM555 25q118 0 222 98t171 250.5t105.5 331t38.5 346.5
q0 460 -263 460q-80 0 -154 -45.5t-132 -123t-105.5 -179.5t-79 -216.5t-48.5 -233t-17 -228.5q0 -460 262 -460z" />
    <glyph glyph-name="P" unicode="P" horiz-adv-x="948" 
d="M274 152q-4 -16 -4 -41q0 -80 97 -80h26l-8 -31h-440l6 31h24q125 0 154 121l299 1232q6 24 6 43q0 78 -96 78h-27l6 31h433q161 0 238 -85.5t77 -225.5q0 -148 -61.5 -274t-177 -203.5t-259.5 -77.5h-96l8 41l80 4q103 7 184.5 80t124.5 185t43 241q0 252 -192 252h-125
z" />
    <glyph glyph-name="Q" unicode="Q" horiz-adv-x="1255" 
d="M1253 993q0 -255 -98.5 -486t-279.5 -402t-416 -250q91 7 185.5 -12.5t171 -52.5t145.5 -67t133.5 -58.5t111.5 -24.5q48 0 78 24t42 59t21.5 69.5t26.5 58.5t47 24t45 -17t15 -44q0 -59 -57 -118.5t-144 -97.5t-170 -38t-191 35.5t-195.5 78t-194 78t-187.5 35.5
q-100 0 -197 -31l-6 47q291 72 451 166q-12 -2 -41 -2q-193 0 -305.5 157.5t-112.5 418.5q0 175 54.5 358t146 331t224.5 242.5t278 94.5q194 0 306.5 -157.5t112.5 -418.5zM555 25q118 0 222 98t171 250.5t105.5 331t38.5 346.5q0 460 -263 460q-80 0 -154 -45.5t-132 -123
t-105.5 -179.5t-79 -216.5t-48.5 -233t-17 -228.5q0 -460 262 -460z" />
    <glyph glyph-name="R" unicode="R" horiz-adv-x="1042" 
d="M838 188q33 -106 51.5 -131.5t66.5 -25.5h11l-6 -31q-47 -8 -93 -8q-75 0 -102 24t-51 109l-189 631h-104l-148 -604q-6 -24 -6 -43q0 -78 99 -78h26l-8 -31h-440l6 31h24q125 0 154 121l299 1232q6 24 6 43q0 78 -96 78h-27l6 31h416q140 0 215.5 -79.5t75.5 -215.5
q0 -174 -102 -298.5t-273 -156.5zM594 1473l-160 -660h88q153 0 249.5 118t96.5 306q0 113 -51.5 174.5t-140.5 61.5h-82z" />
    <glyph glyph-name="S" unicode="S" horiz-adv-x="845" 
d="M608 379q0 74 -25 141.5t-62 116t-81 104t-81 105t-62 120.5t-25 150q0 118 51 222.5t140 167.5t192 63q161 0 238 -139l-78 -320h-33q25 119 25 172q0 111 -37.5 170t-126.5 59q-108 0 -177 -89t-69 -228q0 -81 35 -154.5t84.5 -133t99 -122t84.5 -146.5t35 -181
q0 -106 -35.5 -199.5t-93 -156t-131.5 -98.5t-151 -36q-204 0 -306 139l95 351h32q-26 -116 -26 -187q0 -118 49.5 -181.5t163.5 -63.5q124 0 200 102t76 252z" />
    <glyph glyph-name="T" unicode="T" horiz-adv-x="1069" 
d="M516 152q-6 -24 -6 -43q0 -78 96 -78h27l-8 -31h-441l6 31h25q125 0 154 121l319 1321h-125q-117 0 -184.5 -67t-130.5 -220l-15 -39h-34l112 389h971l-98 -389h-35l6 39q12 99 8.5 163t-42 94t-126.5 30h-159z" />
    <glyph glyph-name="U" unicode="U" horiz-adv-x="1222" 
d="M406 1366q10 52 10 61q0 78 -97 78h-26l6 31h440l-8 -31h-24q-61 0 -99.5 -32t-52.5 -89l-201 -833q-28 -126 -28 -240q0 -268 231 -268q155 0 266.5 138.5t175.5 400.5l172 694q23 105 23 131q0 50 -24 74t-89 24h-28l8 31h371l-9 -31h-34q-64 0 -95 -48t-63 -173
l-166 -680q-74 -309 -213.5 -473t-331.5 -164q-165 0 -252.5 86.5t-87.5 263.5q0 119 41 291z" />
    <glyph glyph-name="V" unicode="V" horiz-adv-x="1081" 
d="M268 -20l123 1339q7 68 4 109t-27 59t-81 18h-25l8 31h435l-9 -31h-39q-27 0 -46.5 -8.5t-31.5 -22t-20 -39t-12 -50t-8 -64.5l-101 -1014l625 1020q57 94 57 133q0 45 -63 45h-41l6 31h336l-8 -31h-11q-63 0 -106 -40.5t-109 -147.5l-829 -1337h-27z" />
    <glyph glyph-name="W" unicode="W" horiz-adv-x="1579" 
d="M1559 1335q47 85 47 127q0 23 -12.5 33t-43.5 10h-34l8 31h319l-8 -31h-10q-66 0 -106.5 -36t-100.5 -138l-799 -1351h-28l28 759l-473 -759h-29l62 1339q5 107 -14 146.5t-86 39.5h-25l8 31h412l-8 -31h-23q-65 0 -88 -36t-29 -148l-49 -1042l344 561l19 479
q5 109 -12 147.5t-80 38.5h-25l6 31h387l-10 -31h-25q-58 0 -75.5 -40.5t-20.5 -143.5l-10 -291l207 330q41 67 41 108q0 37 -56 37h-16l8 31h283l-6 -31h-11q-48 0 -89 -31.5t-97 -121.5l-268 -424l-25 -645z" />
    <glyph glyph-name="X" unicode="X" horiz-adv-x="1040" 
d="M625 244l-86 461l-289 -459q-42 -67 -59 -100.5t-17 -57.5q0 -29 17.5 -43t60.5 -14h18l-6 -31h-375l7 31h20q69 0 125 41.5t143 175.5l340 534l-100 543q-22 114 -47.5 147t-93.5 33h-21l6 31h432l-6 -31h-20q-113 0 -113 -84q0 -22 12 -92l78 -409l242 374
q72 107 72 154q0 30 -21.5 43.5t-71.5 13.5h-4l9 31h364l-10 -31h-21q-81 0 -128 -43t-132 -178l-286 -440l112 -596q24 -134 49.5 -175.5t92.5 -41.5h20l-4 -31h-420l8 31h17q53 0 76.5 24t23.5 72q0 43 -14 117z" />
    <glyph glyph-name="Y" unicode="Y" horiz-adv-x="1095" 
d="M389 152l129 530l-94 637q-17 118 -43.5 152t-97.5 34h-15l8 31h447l-8 -31h-31q-64 0 -92.5 -23.5t-28.5 -72.5q0 -37 8 -86l82 -567l326 526q78 126 78 164q0 30 -19.5 44.5t-68.5 14.5h-21l8 31h373l-8 -31h-10q-45 0 -76.5 -10t-64 -41.5t-58 -67t-72.5 -108.5
l-374 -596l-131 -530q-7 -28 -7 -43q0 -78 99 -78h26l-8 -31h-440l6 31h25q124 0 153 121z" />
    <glyph glyph-name="Z" unicode="Z" horiz-adv-x="999" 
d="M-70 0l7 27l1040 1446h-307q-137 0 -218.5 -78t-150.5 -256l-14 -41h-35l133 438h789l-7 -27l-1040 -1446h350q74 0 129.5 20t100 66.5t78 103.5t75.5 150l19 41h34l-139 -444h-844z" />
    <glyph glyph-name="a" unicode="a" horiz-adv-x="770" 
d="M752 389q-132 -187 -239.5 -304.5t-156.5 -117.5q-19 0 -25.5 12.5t-6.5 36.5q0 46 32 144l168 510q-173 -355 -299.5 -529t-201.5 -174q-54 0 -54 82q0 60 25 158t66.5 210t101 226t124 206t139.5 150t144 58q38 0 117 -35l76 82l35 -4l-332 -983q147 134 262 293z
M115 145q0 -22 14 -22q12 0 37.5 26t68 86.5t95 148.5t124 224t150.5 301l6 17q-64 57 -112 57q-61 0 -133 -111t-125 -256.5t-89 -280.5t-36 -190z" />
    <glyph glyph-name="b" unicode="b" horiz-adv-x="722" 
d="M344 1343h-108l10 27q141 55 268 207h21l-297 -1022q92 216 197.5 359t193.5 143q56 0 80 -39t24 -117q0 -124 -54.5 -288t-135 -306t-184 -241t-191.5 -99q-137 0 -137 183q0 118 53 301zM178 23q80 0 180 149t168 347t68 335q0 36 -8.5 53t-30.5 17q-62 0 -163.5 -162
t-178 -363.5t-76.5 -308.5q0 -67 41 -67z" />
    <glyph glyph-name="c" unicode="c" horiz-adv-x="571" 
d="M463 324q-149 -357 -307 -357q-131 0 -131 236q0 81 17.5 175.5t49 189t79 183t103 156.5t125 109t142.5 41q50 0 77 -21.5t27 -58.5q0 -29 -19 -50.5t-44 -21.5q-20 0 -32 13.5t-17.5 29.5t-20.5 29.5t-39 13.5q-39 0 -84 -46t-85.5 -124.5t-74 -173t-53.5 -200.5
t-20 -199q0 -172 65 -172q47 0 98 67t115 195z" />
    <glyph glyph-name="d" unicode="d" horiz-adv-x="770" 
d="M901 1577l-416 -1460q145 135 256 293l25 -21q-129 -189 -232.5 -305.5t-152.5 -116.5q-33 0 -33 51q0 39 35 150l92 328q-101 -222 -211 -375.5t-188 -153.5q-50 0 -70 32.5t-20 106.5q0 124 58 292t141 312.5t183 245.5t177 101q34 0 80 -17l86 303h-107l10 27
q143 56 269 207h18zM156 86q41 0 139 153.5t187 359t104 331.5q-28 55 -82 55q-78 0 -171.5 -159t-154.5 -355t-61 -313q0 -72 39 -72z" />
    <glyph glyph-name="e" unicode="e" horiz-adv-x="571" 
d="M156 248q0 -168 61 -168q98 0 201 260l28 -14q-132 -359 -292 -359q-129 0 -129 230q0 130 41 282.5t106 280t153.5 212.5t174.5 85q106 0 106 -119q0 -132 -116.5 -245.5t-294.5 -172.5q-39 -150 -39 -272zM455 997q-58 0 -130 -129.5t-120 -304.5q94 40 161.5 109.5
t96.5 137.5t29 128q0 59 -37 59z" />
    <glyph glyph-name="f" unicode="f" horiz-adv-x="497" 
d="M-305 -532q-67 0 -104 26t-37 66q0 25 16.5 43t44.5 18q23 0 38.5 -15.5t23 -34.5t26.5 -34.5t47 -15.5q70 0 127.5 92t118.5 319l276 1029h-147l8 20l156 37q77 282 189 410t239 128q60 0 97.5 -25t37.5 -63q0 -27 -16 -43t-45 -16q-20 0 -34.5 13.5t-22 29.5t-26 29.5
t-46.5 13.5q-43 0 -76 -30t-69.5 -115t-78.5 -240l-22 -86h207l-23 -63h-203l-237 -871q-47 -173 -102 -296t-114.5 -193t-120 -101.5t-128.5 -31.5z" />
    <glyph glyph-name="g" unicode="g" horiz-adv-x="638" 
d="M256 254q-66 0 -102 51q-40 -26 -55 -47t-15 -49q0 -45 84 -103l121 -79q82 -53 121 -107.5t39 -132.5q0 -147 -112 -239.5t-267 -92.5q-122 0 -191 51.5t-69 149.5q0 105 74 185.5t208 150.5q-54 35 -82 73t-28 87q0 52 38.5 94.5t114.5 87.5q-24 58 -24 145
q0 89 28 190t73.5 187.5t112 143.5t136.5 57q53 0 86 -33h207l-27 -63h-139q18 -55 18 -132q0 -93 -29 -195.5t-76.5 -186t-113 -138.5t-131.5 -55zM455 1001q-52 0 -111.5 -106t-97 -245t-37.5 -240q0 -103 53 -103q58 0 117.5 113t94 252.5t34.5 234.5q0 94 -53 94z
M-94 -322q0 -82 49 -124.5t141 -42.5q115 0 187.5 60t72.5 153q0 57 -27 94t-100 84l-104 67q-112 -66 -165.5 -135.5t-53.5 -155.5z" />
    <glyph glyph-name="h" unicode="h" horiz-adv-x="800" 
d="M735 410l25 -21q-292 -422 -377 -422q-37 0 -37 56q0 50 35 143l225 622q21 61 21 84q0 31 -27 31q-30 0 -74.5 -39.5t-104 -120.5t-136.5 -229.5t-158 -343.5l-49 -170h-113l383 1343h-108l10 27q141 55 268 207h19l-338 -1161q150 329 277 485t220 156q74 0 74 -94
q0 -59 -37 -160l-246 -686q137 133 248 293z" />
    <glyph glyph-name="i" unicode="i" horiz-adv-x="468" 
d="M477 1276q-39 0 -63.5 23.5t-24.5 62.5q0 38 25 63t63 25q37 0 62.5 -25t25.5 -63q0 -39 -25 -62.5t-63 -23.5zM59 168l226 649q16 50 16 72q0 24 -16 24q-27 0 -62 -46t-96 -160l-29 14q70 153 143 244.5t136 91.5q61 0 61 -78q0 -62 -43 -186l-233 -672
q148 141 254 289l24 -21q-293 -422 -381 -422q-36 0 -36 51q0 47 36 150z" />
    <glyph glyph-name="j" unicode="j" horiz-adv-x="401" 
d="M471 1276q-39 0 -62.5 23.5t-23.5 62.5q0 38 24 63t62 25q37 0 62.5 -25t25.5 -63q0 -39 -25 -62.5t-63 -23.5zM-238 -446q106 0 224 366l290 897q17 53 17 72q0 24 -17 24q-27 0 -61.5 -45.5t-95.5 -160.5l-29 14q69 152 143 244t136 92q63 0 63 -78q0 -45 -45 -186
l-270 -822q-42 -125 -101 -227t-119.5 -163t-117 -93.5t-101.5 -32.5q-79 0 -79 64q0 31 19.5 49t47.5 18q18 0 46 -16t50 -16z" />
    <glyph glyph-name="k" unicode="k" horiz-adv-x="743" 
d="M694 391q-68 -146 -172.5 -286t-146.5 -140q-25 0 -44.5 179.5t-27.5 371.5q-86 -70 -121 -151l-106 -365h-111l387 1356h-106l8 26q144 54 266 195h19l-254 -868q53 104 105.5 176.5t96 107.5t77.5 49.5t65 14.5q59 0 93 -33.5t34 -91.5q0 -40 -9.5 -74.5t-30.5 -63
t-42 -49.5t-57.5 -44t-62 -37t-71 -37.5t-69.5 -36.5q19 -319 47 -477q107 126 209 297zM575 954q-65 0 -155 -103.5t-191 -328.5l-12 -37q41 49 102.5 92t114.5 72t101.5 61.5t77 75t28.5 97.5q0 71 -66 71z" />
    <glyph glyph-name="l" unicode="l" horiz-adv-x="419" 
d="M541 1577l-412 -1462q137 134 254 293l23 -19q-136 -199 -232.5 -310.5t-146.5 -111.5q-37 0 -37 53q0 43 28 146l334 1177h-106l8 27q141 55 268 207h19z" />
    <glyph glyph-name="m" unicode="m" horiz-adv-x="1202" 
d="M291 819q18 43 18 68q0 20 -14 20q-29 0 -69.5 -48t-102.5 -150l-27 12q81 156 158.5 246t142.5 90q60 0 60 -68q0 -63 -49 -182l-127 -303q155 283 277.5 418t203.5 135q67 0 67 -76q0 -70 -51 -184l-133 -310q157 290 283.5 430t208.5 140q67 0 67 -78q0 -68 -51 -182
l-291 -680q140 131 266 293l23 -21q-322 -422 -406 -422q-32 0 -32 43q0 50 47 156l266 618q27 66 27 95q0 24 -23 24q-29 0 -81.5 -49.5t-127 -150t-176.5 -283.5t-211 -420h-121l338 784q27 69 27 93q0 26 -25 26q-27 0 -75.5 -45t-116.5 -136t-161.5 -255.5
t-195.5 -378.5l-36 -88h-109z" />
    <glyph glyph-name="n" unicode="n" horiz-adv-x="862" 
d="M276 817q17 49 17 72q0 22 -17 22q-28 0 -65.5 -47t-95.5 -155l-27 12q67 151 141 243.5t136 92.5q65 0 65 -78q0 -60 -37 -164l-139 -409q153 335 281 493t221 158q71 0 71 -94q0 -53 -34 -160l-246 -686q130 127 246 293l24 -21q-292 -422 -375 -422q-36 0 -36 53
q0 52 34 146l226 622q18 52 18 84q0 17 -6 24t-21 7q-32 0 -82 -48t-117.5 -148t-157 -283t-183.5 -424h-111z" />
    <glyph glyph-name="o" unicode="o" horiz-adv-x="679" 
d="M481 1057q166 0 166 -279q0 -118 -37.5 -260t-97.5 -264.5t-144 -204.5t-167 -82q-166 0 -166 279q0 94 23.5 205.5t66 217.5t97 193.5t123 141t136.5 53.5zM477 1004q-64 0 -145.5 -154t-137 -359.5t-55.5 -349.5q0 -121 66 -121q64 0 145.5 154t137 359.5t55.5 349.5
q0 121 -66 121z" />
    <glyph glyph-name="p" unicode="p" horiz-adv-x="735" 
d="M111 -483l-9 -29h-383l9 29h26q53 0 85.5 36.5t54.5 106.5l393 1231q-95 -68 -203 -184l-18 34q53 59 79.5 87.5t75.5 74t92 74.5l54 168q53 31 122 35l-40 -138q47 15 94 15q91 0 133.5 -63.5t42.5 -174.5q0 -122 -46 -273t-115 -278t-158 -214t-167 -87q-63 0 -96 58
l-112 -365q-15 -62 -15 -80q0 -63 78 -63h23zM195 131q0 -98 59 -98q53 0 114.5 74t111 183t83 242.5t33.5 245.5q0 199 -100 199q-34 0 -72 -12l-203 -668q-26 -98 -26 -166z" />
    <glyph glyph-name="q" unicode="q" horiz-adv-x="718" 
d="M420 -483l-8 -29h-383l8 29h29q57 0 91 36t56 105l274 852q-65 -143 -136 -263.5t-143 -200t-122 -79.5q-53 0 -76.5 33t-23.5 106q0 120 56.5 286.5t138 312.5t182.5 249t182 103q78 0 131 -53l80 100l32 -4l-444 -1440q-14 -51 -14 -80q0 -35 15.5 -49t51.5 -14h23z
M154 86q42 0 143 155t192.5 361t106.5 330q-33 51 -94 51q-46 0 -101.5 -63.5t-104.5 -163t-90 -211.5t-65 -217.5t-24 -173.5t37 -68z" />
    <glyph glyph-name="r" unicode="r" horiz-adv-x="610" 
d="M270 807q17 57 17 74q0 26 -21 26q-50 0 -155 -198l-27 12q69 152 142 244t134 92q33 0 47.5 -19t14.5 -59q0 -60 -37 -164l-92 -274q62 142 117 244t90.5 153.5t69.5 80t50.5 33.5t36.5 5q72 0 72 -78q0 -34 -17.5 -54t-43.5 -20q-20 0 -40.5 12.5t-37.5 12.5
q-41 0 -100 -83t-155.5 -294.5t-225.5 -552.5h-107z" />
    <glyph glyph-name="s" unicode="s" horiz-adv-x="485" 
d="M367 995q-38 0 -65.5 -46t-27.5 -101q0 -101 32 -256.5t32 -245.5q0 -168 -98 -273.5t-230 -105.5q-43 0 -70.5 19.5t-27.5 58.5q0 30 19 49t49 19q23 0 38.5 -12t23.5 -26t24.5 -26t39.5 -12q51 0 84 57.5t33 136.5q0 116 -29.5 266t-29.5 226q0 77 25.5 142t67 106
t91.5 63.5t101 22.5q42 0 67 -20t25 -58q0 -26 -16.5 -45t-45.5 -19q-20 0 -33 12.5t-19.5 27.5t-21.5 27.5t-38 12.5z" />
    <glyph glyph-name="t" unicode="t" horiz-adv-x="499" 
d="M162 121q130 126 250 287l22 -19q-290 -422 -377 -422q-34 0 -34 49q0 48 30 150l242 795h-168l23 63h163l52 166l112 80h27l-74 -246h180l-20 -63h-178z" />
    <glyph glyph-name="u" unicode="u" horiz-adv-x="849" 
d="M545 117q119 113 246 293l24 -21q-282 -422 -375 -422q-39 0 -39 56q0 49 33 143l205 569q-367 -768 -547 -768q-29 0 -44 27t-15 72q0 61 28 143l220 604q16 53 16 74q0 24 -18 24q-25 0 -66.5 -52t-93.5 -150l-25 12q66 149 143 242.5t140 93.5t63 -76q0 -65 -39 -168
l-213 -590q-16 -44 -16 -78q0 -26 18 -26t49.5 31t81 102t110 173.5t141 257t169.5 341.5h111z" />
    <glyph glyph-name="v" unicode="v" horiz-adv-x="694" 
d="M264 815q17 66 17 76q0 18 -13 18q-57 0 -162 -200l-26 12q67 150 143.5 243t141.5 93q57 0 57 -72q0 -54 -43 -192l-158 -506q-37 -119 -37 -174q0 -52 31 -52q37 0 104 76.5t130 183.5t110 234.5t47 218.5q0 56 -16.5 112t-16.5 85q0 37 17.5 61.5t46.5 24.5
q68 0 68 -127q0 -101 -38.5 -233t-102 -257t-137 -233t-150.5 -174t-136 -66q-80 0 -80 119q0 81 39 209z" />
    <glyph glyph-name="w" unicode="w" horiz-adv-x="1071" 
d="M1079 928q0 -107 -37 -241.5t-98 -258t-131.5 -229t-144.5 -169t-131 -63.5q-82 0 -82 119q0 57 49 246q-91 -165 -188.5 -265t-172.5 -100q-82 0 -82 117q0 87 43 217l160 516q17 49 17 72q0 20 -17 20q-26 0 -63 -47.5t-95 -152.5l-24 12q68 149 143.5 242.5
t139.5 93.5q55 0 55 -78q0 -64 -39 -186l-160 -508q-37 -122 -37 -170q0 -54 33 -54q42 0 106.5 77t127 195t115 276t69.5 304q9 84 29.5 114t68.5 30q27 0 36 -15.5t9 -46.5q0 -50 -52 -218t-104.5 -358t-52.5 -292q0 -66 37 -66t100.5 75t123.5 181.5t104.5 234.5
t44.5 222q0 56 -16.5 111t-16.5 86q0 37 17.5 61.5t46.5 24.5q69 0 69 -129z" />
    <glyph glyph-name="x" unicode="x" horiz-adv-x="741" 
d="M158 207l149 258l-31 453q-92 -84 -184 -259l-26 13q54 129 145.5 255t140.5 126q16 0 25.5 -7.5t14.5 -27t7 -39t4 -57.5l23 -301l129 227q20 36 35.5 61t38 55t42 48.5t43.5 31.5t48 13q69 0 69 -72q0 -34 -17 -56t-46 -22q-18 0 -40 11.5t-38 11.5q-24 0 -47 -25.5
t-59 -85.5l-154 -262l33 -457q83 77 186 267l23 -21q-55 -127 -145.5 -253t-137.5 -126q-29 0 -40.5 31t-16.5 100l-21 301l-127 -225q-30 -51 -47 -77t-45 -62t-55.5 -52t-56.5 -16q-33 0 -50.5 19.5t-17.5 50.5q0 35 21 58.5t51 23.5q18 0 38.5 -9.5t36.5 -9.5
q21 0 43.5 24t55.5 83z" />
    <glyph glyph-name="y" unicode="y" horiz-adv-x="737" 
d="M-41 -444q59 0 144.5 87t179.5 232q12 189 13.5 419t-17.5 423.5t-54 193.5q-47 0 -149 -194l-23 16q63 143 127 233.5t117 90.5q44 0 72.5 -105.5t38 -260t7.5 -320.5t-16 -297q107 199 174.5 392t67.5 318q0 54 -15.5 107t-15.5 86q0 37 18 58.5t50 21.5q67 0 67 -115
q0 -85 -40 -230t-106 -309.5t-155.5 -333.5t-183.5 -305.5t-196 -222.5t-187 -86q-44 0 -67 19t-23 53q0 31 19 52.5t47 21.5q22 0 48.5 -22.5t57.5 -22.5z" />
    <glyph glyph-name="z" unicode="z" horiz-adv-x="696" 
d="M137 807q0 32 20 74t53 81.5t83.5 67t105.5 27.5q30 0 96 -39t101 -39q62 0 147 92l23 -22l-688 -863q34 17 69 17q33 0 65.5 -14.5t57.5 -35.5t48.5 -42t49 -35.5t48.5 -14.5q41 0 69.5 30.5t28.5 76.5q0 16 -13.5 49t-13.5 57q0 30 17.5 52t48.5 22q27 0 42 -20.5
t15 -53.5q0 -59 -41 -131.5t-104 -124t-119 -51.5q-38 0 -74 20.5t-59.5 45t-57.5 45t-69 20.5q-31 0 -52.5 -13t-32.5 -31t-19.5 -36.5t-19 -31.5t-25.5 -13q-33 0 -33 29q0 6 1.5 12t5.5 14l7.5 15t11 18t13 18.5t16 21l17.5 22.5t20.5 26t21.5 27l545 686h-8
q-42 0 -78.5 18t-57.5 39.5t-50 39.5t-58 18q-34 0 -57 -24t-23 -56q0 -23 11.5 -45t11.5 -45q0 -26 -15.5 -42.5t-43.5 -16.5q-27 0 -42.5 16t-15.5 43z" />
    <glyph glyph-name="guillemotleft" unicode="&#xab;" horiz-adv-x="782" 
d="M72 504l10 45l403 391l7 -35l-289 -387l104 -409l-20 -23zM369 504l10 45l403 391l6 -35l-288 -387l104 -409l-20 -23z" />
    <glyph glyph-name="guillemotright" unicode="&#xbb;" horiz-adv-x="782" 
d="M416 522l-10 -47l-404 -389l-6 35l289 387l-105 410l21 22zM713 522l-11 -47l-403 -389l-6 35l289 387l-105 410l21 22z" />
    <glyph glyph-name="quoteleft" unicode="&#x2018;" horiz-adv-x="393" 
d="M449 1147q0 -49 -27.5 -82t-73.5 -33q-48 0 -73 38.5t-25 103.5q0 34 6 70t23.5 81.5t45.5 85.5t76 79.5t111 65.5v-30q-88 -38 -139 -110.5t-51 -158.5q0 -34 6 -55q30 27 55 27q32 0 49 -21.5t17 -60.5z" />
    <glyph glyph-name="quoteright" unicode="&#x2019;" horiz-adv-x="391" 
d="M510 1417q0 -45 -11 -92t-37 -103t-80.5 -106.5t-131.5 -83.5v31q87 40 137.5 111t50.5 157q0 34 -6 55q-24 -24 -55 -24q-32 0 -49 21.5t-17 58.5q0 50 28 82t73 32q48 0 73 -37.5t25 -101.5z" />
    <glyph glyph-name="quotedblleft" unicode="&#x201c;" horiz-adv-x="653" 
d="M449 1147q0 -49 -27.5 -82t-73.5 -33q-48 0 -73 38.5t-25 103.5q0 34 6 70t23.5 81.5t45.5 85.5t76 79.5t111 65.5v-30q-88 -38 -139 -110.5t-51 -158.5q0 -34 6 -55q30 27 55 27q32 0 49 -21.5t17 -60.5zM709 1147q0 -49 -27.5 -82t-73.5 -33q-48 0 -73 38.5t-25 103.5
q0 34 6 70t23.5 81.5t45.5 85.5t76 79.5t111 65.5v-30q-88 -38 -139 -110.5t-51 -158.5q0 -34 6 -55q30 27 55 27q32 0 49 -21.5t17 -60.5z" />
    <glyph glyph-name="quotedblright" unicode="&#x201d;" horiz-adv-x="651" 
d="M510 1417q0 -45 -11 -92t-37 -103t-80.5 -106.5t-131.5 -83.5v31q87 40 137.5 111t50.5 157q0 34 -6 55q-24 -24 -55 -24q-32 0 -49 21.5t-17 58.5q0 50 28 82t73 32q48 0 73 -37.5t25 -101.5zM768 1417q0 -45 -11 -92t-37 -103t-80.5 -106.5t-131.5 -83.5v31
q87 40 137.5 111t50.5 157q0 34 -6 55q-24 -24 -55 -24q-32 0 -49 21.5t-17 58.5q0 50 28 82t73 32q48 0 73 -37.5t25 -101.5z" />
    <glyph glyph-name="thinspace" horiz-adv-x="256" 
 />
    <glyph glyph-name="idotaccent" horiz-adv-x="468" 
d="M492 1286q-35 0 -55.5 22.5t-20.5 59.5q0 34 21.5 57t54.5 23t54 -23t21 -57q0 -37 -20 -59.5t-55 -22.5zM59 168l226 649q16 50 16 72q0 24 -16 24q-27 0 -62 -46t-96 -160l-29 14q70 153 143 244.5t136 91.5q61 0 61 -78q0 -62 -43 -186l-233 -672q148 141 254 289
l24 -21q-293 -422 -381 -422q-36 0 -36 51q0 47 36 150z" />
    <glyph glyph-name="comma.numr" horiz-adv-x="243" 
d="M246 780q0 -68 -38 -130.5t-110 -94.5l-2 20q42 22 69.5 63t27.5 85v10q-12 -4 -19 -4q-19 0 -30 13t-11 36q0 29 16.5 49.5t43.5 20.5q25 0 39 -19t14 -49z" />
    <glyph glyph-name="period.numr" horiz-adv-x="229" 
d="M178 729q-45 0 -45 47q0 28 18 50t44 22q45 0 45 -49q0 -29 -17.5 -49.5t-44.5 -20.5z" />
    <glyph glyph-name="parenleft.numr" 
d="M180 934q0 158 89 318.5t237 283.5l14 -16q-123 -127 -194.5 -304t-71.5 -342q3 -157 43 -251l-18 -11q-99 135 -99 322z" />
    <glyph glyph-name="parenright.numr" 
d="M412 1214q0 -159 -88.5 -319t-237.5 -283l-14 17q123 127 193.5 302.5t70.5 342.5q0 156 -43 250l18 12q101 -138 101 -322z" />
    <glyph glyph-name="plus.numr" horiz-adv-x="507" 
d="M178 1030l10 37h187l47 184h35l-45 -184h186l-10 -37h-187l-45 -184h-37l48 184h-189z" />
    <glyph glyph-name="zero.numr" horiz-adv-x="563" 
d="M530 1554q71 0 111.5 -62t40.5 -171q0 -127 -45 -265.5t-124 -236.5t-165 -98q-70 0 -111.5 63t-41.5 170q0 127 45 265.5t124.5 236.5t165.5 98zM530 1516q-55 0 -110 -117.5t-87 -270t-32 -266.5q0 -104 45 -104q56 0 111 118.5t86.5 270t31.5 264.5q0 105 -45 105z
" />
    <glyph glyph-name="one.numr" horiz-adv-x="409" 
d="M252 823l139 580q-71 -38 -137 -66l-6 25q146 76 280 194h15l-178 -733q-13 -63 49 -63h14l-4 -21h-299l8 21h17q90 0 102 63z" />
    <glyph glyph-name="two.numr" horiz-adv-x="499" 
d="M487 739h-364l8 37q33 50 105 134.5t126 149t98 153t44 167.5q0 46 -18 76.5t-56 30.5q-100 0 -151 -189l-23 9q20 108 78 177.5t147 69.5q64 0 100.5 -41t36.5 -112q0 -80 -46.5 -163t-103 -140t-137.5 -135t-118 -123h172q54 0 84.5 26t58.5 88l9 15h20z" />
    <glyph glyph-name="three.numr" horiz-adv-x="475" 
d="M287 752q59 0 102 72t43 173q0 62 -25 96.5t-71 34.5q-36 0 -72 -22l-14 22q225 130 225 277q0 36 -16.5 56t-46.5 20q-36 0 -65 -34.5t-48 -88.5l-25 10q27 82 79.5 133t117.5 51q53 0 83 -31t30 -85q0 -138 -185 -236q67 -3 104.5 -50t37.5 -118q0 -125 -78.5 -218
t-200.5 -93q-55 0 -94 24t-39 60q0 17 11.5 29t25.5 12q22 0 41 -29q5 -6 15 -21.5t16.5 -22.5t19 -14t29.5 -7z" />
    <glyph glyph-name="four.numr" horiz-adv-x="507" 
d="M625 1556l-125 -526h110l-6 -33h-112l-62 -258h-113l62 258h-232l5 17l456 542h17zM207 1030h180l72 301z" />
    <glyph glyph-name="five.numr" horiz-adv-x="413" 
d="M119 723l8 29l10 2q115 14 184.5 79.5t69.5 165.5q0 145 -166 201l127 326l258 22l-47 -108l-221 -19l-45 -114q91 -36 139.5 -98.5t48.5 -147.5q0 -141 -99.5 -235t-266.5 -103z" />
    <glyph glyph-name="six.numr" horiz-adv-x="518" 
d="M338 721q-75 0 -116.5 58t-41.5 155q0 204 146.5 377.5t371.5 244.5l4 -24q-159 -67 -251 -169t-138 -276q59 107 150 107q62 0 94.5 -46t32.5 -116q0 -122 -75.5 -216.5t-176.5 -94.5zM346 754q36 0 66 49t45.5 114.5t15.5 124.5q0 101 -49 101q-38 0 -69 -46.5
t-46.5 -109.5t-15.5 -123q0 -110 53 -110z" />
    <glyph glyph-name="seven.numr" horiz-adv-x="423" 
d="M639 1509l-389 -755q-17 -33 -35 -33q-11 0 -18 7t-7 17q0 13 15 35l366 652h-190q-52 0 -72 -14t-35 -62l-6 -15h-24l67 195h336z" />
    <glyph glyph-name="eight.numr" horiz-adv-x="495" 
d="M545 969q0 -102 -64 -175t-162 -73q-73 0 -115 41t-42 115q0 76 48.5 145t127.5 117q-62 83 -62 180q0 91 58.5 162t154.5 71q63 0 99.5 -39.5t36.5 -105.5q0 -146 -168 -227q29 -35 44.5 -58t29.5 -64.5t14 -88.5zM471 1524q-43 0 -70.5 -43t-27.5 -105q0 -53 17.5 -93
t49.5 -83q55 50 79 109t24 108q0 47 -18 77t-54 30zM246 881q0 -61 22 -94t64 -33q56 0 86.5 41.5t30.5 109.5q0 20 -2.5 38t-9 36t-12 30.5t-17 30t-17 25.5t-20.5 27.5t-19 25.5q-55 -49 -80.5 -112t-25.5 -125z" />
    <glyph glyph-name="nine.numr" horiz-adv-x="518" 
d="M494 1552q75 0 116 -58.5t41 -156.5q0 -202 -146.5 -376.5t-371.5 -245.5l-4 26q159 67 251 168.5t138 274.5q-59 -107 -149 -107q-60 0 -93.5 46t-33.5 116q0 124 75.5 218.5t176.5 94.5zM485 1520q-36 0 -66 -50t-45.5 -115.5t-15.5 -123.5q0 -103 52 -103
q37 0 68 46.5t47 110.5t16 124q0 111 -56 111z" />
    <glyph glyph-name="comma.dnom" horiz-adv-x="243" 
d="M61 41q0 -69 -37.5 -131t-109.5 -94l-2 20q42 22 69 63t27 85v10q-12 -4 -18 -4q-19 0 -30 13t-11 36q0 29 16 49.5t43 20.5q25 0 39 -19t14 -49z" />
    <glyph glyph-name="period.dnom" horiz-adv-x="229" 
d="M-6 -10q-45 0 -45 47q0 29 17.5 50.5t43.5 21.5q45 0 45 -50q0 -29 -17 -49t-44 -20z" />
    <glyph glyph-name="parenleft.dnom" 
d="M-4 195q0 158 89 318.5t237 283.5l14 -17q-123 -127 -194.5 -303.5t-71.5 -341.5q3 -158 43 -252l-19 -10q-98 134 -98 322z" />
    <glyph glyph-name="parenright.dnom" 
d="M227 475q0 -159 -88.5 -319t-236.5 -283l-15 16q123 127 194 303t71 343q0 155 -43 249l18 13q100 -137 100 -322z" />
    <glyph glyph-name="plus.dnom" horiz-adv-x="507" 
d="M-8 291l10 37h186l48 184h34l-45 -184h187l-11 -37h-186l-45 -185h-37l47 185h-188z" />
    <glyph glyph-name="zero.dnom" horiz-adv-x="563" 
d="M346 815q71 0 111.5 -62t40.5 -171q0 -127 -45 -265.5t-124 -236.5t-165 -98q-71 0 -112.5 63t-41.5 170q0 127 45.5 266t125 236.5t165.5 97.5zM346 776q-55 0 -110 -117.5t-87 -269.5t-32 -266q0 -105 45 -105q56 0 111 118.5t86.5 270.5t31.5 265q0 104 -45 104z" />
    <glyph glyph-name="one.dnom" horiz-adv-x="409" 
d="M66 84l139 580q-71 -38 -137 -66l-7 25q82 43 145 86.5t136 107.5h14l-178 -733q-13 -64 49 -64h15l-4 -20h-299l8 20h16q91 0 103 64z" />
    <glyph glyph-name="two.dnom" horiz-adv-x="499" 
d="M303 0h-364l8 37q29 43 82 106t99.5 118t92 118t72 130.5t26.5 131.5q0 46 -17.5 76.5t-55.5 30.5q-101 0 -152 -189l-22 8q20 109 78 178.5t147 69.5q64 0 100.5 -41t36.5 -112q0 -65 -28 -129t-77 -122t-98 -106.5t-109 -106.5t-93 -98h172q54 0 84.5 26.5t58.5 88.5
l8 14h21z" />
    <glyph glyph-name="three.dnom" horiz-adv-x="475" 
d="M100 12q59 0 102.5 72.5t43.5 173.5q0 62 -25 96.5t-71 34.5q-36 0 -72 -22l-15 22q226 130 226 277q0 35 -16.5 55t-47.5 20q-69 0 -112 -123l-25 11q27 82 79.5 133t117.5 51q52 0 82 -31.5t30 -85.5q0 -138 -184 -235q67 -3 104 -49.5t37 -118.5q0 -125 -78 -218
t-200 -93q-55 0 -94 24t-39 60q0 17 11.5 28.5t25.5 11.5q21 0 40 -28q5 -7 15 -22t16.5 -22.5t19 -14.5t29.5 -7z" />
    <glyph glyph-name="four.dnom" horiz-adv-x="507" 
d="M440 817l-125 -526h111l-6 -33h-113l-61 -258h-113l62 258h-232l4 16l457 543h16zM23 291h180l71 301z" />
    <glyph glyph-name="five.dnom" horiz-adv-x="413" 
d="M-66 -16l9 28l10 2q115 14 184.5 80t69.5 166q0 145 -166 201l127 325l258 23l-47 -109l-221 -18l-45 -115q188 -74 188 -245q0 -141 -100 -235t-267 -103z" />
    <glyph glyph-name="six.dnom" horiz-adv-x="518" 
d="M152 -18q-75 0 -116.5 58t-41.5 155q0 204 146.5 377.5t371.5 244.5l4 -24q-159 -67 -251 -169t-138 -276q59 107 149 107q62 0 94.5 -46t32.5 -116q0 -122 -75 -216.5t-176 -94.5zM160 14q36 0 66 49.5t45.5 115t15.5 124.5q0 100 -49 100q-38 0 -69 -46t-47 -109
t-16 -123q0 -111 54 -111z" />
    <glyph glyph-name="seven.dnom" horiz-adv-x="423" 
d="M455 770l-389 -756q-17 -32 -35 -32q-11 0 -18 7t-7 17q0 14 14 35l367 651h-190q-52 0 -72 -14t-35 -62l-6 -14h-25l68 195h336z" />
    <glyph glyph-name="eight.dnom" horiz-adv-x="495" 
d="M360 229q0 -102 -63.5 -174.5t-161.5 -72.5q-73 0 -115.5 40.5t-42.5 114.5q0 76 49 145t128 117q-62 83 -62 181q0 91 58.5 162t154.5 71q63 0 99 -39.5t36 -105.5q0 -147 -168 -228q29 -35 44.5 -58t29.5 -64.5t14 -88.5zM287 784q-43 0 -71 -43t-28 -104
q0 -53 17.5 -92.5t50.5 -83.5q55 50 78.5 108.5t23.5 108.5q0 48 -17.5 77t-53.5 29zM61 141q0 -61 22 -94t64 -33q56 0 86.5 42t30.5 110q0 20 -2.5 38t-9.5 36t-11.5 30t-16.5 30.5t-16.5 25.5t-20.5 28t-19 25q-55 -49 -81 -113t-26 -125z" />
    <glyph glyph-name="nine.dnom" horiz-adv-x="518" 
d="M309 813q75 0 116.5 -59t41.5 -156q0 -202 -146.5 -377t-371.5 -246l-4 27q159 67 251 168t138 274q-59 -106 -150 -106q-60 0 -93.5 46t-33.5 116q0 124 75.5 218.5t176.5 94.5zM301 780q-36 0 -66 -49.5t-45.5 -115t-15.5 -123.5q0 -103 51 -103q37 0 68 46.5t47 110.5
t16 124q0 110 -55 110z" />
    <glyph glyph-name="fraction" horiz-adv-x="225" 
d="M-408 0l1088 1536h78l-1088 -1536h-78z" />
    </font>
</defs>
</svg>
